<!-- Generator: Adobe Illustrator 22.0.1, SVG Export Plug-In  -->
<svg xmlns:xlink="http://www.w3.org/1999/xlink"
	 xmlns:a="http://ns.adobe.com/AdobeSVGViewerExtensions/3.0/" version="1.1"
	 xmlns="http://www.w3.org/2000/svg"
	 x="0px" y="0px" width="3964.7px" height="3296.2px" viewBox="0 0 4964.7 2296.2"
	 style="enable-background:new 0 0 1964.7 2296.2;" xml:space="preserve">
 <style>
	.st0{fill:#247BB6;}
</style>
<defs>
</defs>
<path class="st0" d="M4677.3,308c-47.1-39-192.9-85.9-323.9-104.1c-131-18.3-352.4-11.4-492,15.2c-139.6,26.6-340.8,82-447.3,123
	c-106.4,41-290.9,96.4-410,123c-119.1,26.6-307,48.4-417.8,48.4c-110.7,0-288.4-26.9-394.8-59.9s-282.4-100.1-391.1-149.2
	S1527.5,173,1435.3,121.9c-92.2-51.2-264.9-103.2-383.7-115.6S754.9,0.5,656.4,21s-237.8,80.1-309.5,132.4S167.8,350,108.2,474
	S0,779.9,0,878.2s16.8,272.6,37.3,387.4s75.9,282.5,123,372.7c47.1,90.2,151.2,202.7,231.2,250.1c80,47.4,239.4,117.8,354.2,156.6
	c114.8,38.8,289.1,70.5,387.4,70.5c98.3,0,276.2-10,395.2-22.1c119.1-12.2,288.6-12.2,376.8,0c88.2,12.2,234.1,45.8,324.3,74.6
	c90.2,28.9,251.1,77.6,357.5,108.2c106.4,30.7,292.6,25.5,413.7-11.5c121.1-37,260.4-109.1,309.5-160.3
	c49.2-51.2,143.1-123.3,208.7-160.3c65.6-37,186.3-58.7,268.1-48.4c81.9,10.4,231.1,13.9,331.7,7.8c100.6-6.1,231.4-43,290.7-82
	s163.2-112.8,230.8-164s168.4-165.2,223.8-253.4c55.5-88.2,100.9-240.9,100.9-339.5s-18.4-237.8-41-309.5
	c-22.5-71.7-67.9-185.7-100.9-253.4S4724.4,347,4677.3,308z"/>
</svg>